<?xml version="1.0" encoding="UTF-8" standalone="no"?>
<!-- Created with Inkscape (http://www.inkscape.org/) -->

<svg
   xmlns:dc="http://purl.org/dc/elements/1.1/"
   xmlns:cc="http://creativecommons.org/ns#"
   xmlns:rdf="http://www.w3.org/1999/02/22-rdf-syntax-ns#"
   xmlns:svg="http://www.w3.org/2000/svg"
   xmlns="http://www.w3.org/2000/svg"
   xmlns:sodipodi="http://sodipodi.sourceforge.net/DTD/sodipodi-0.dtd"
   xmlns:inkscape="http://www.inkscape.org/namespaces/inkscape"
   width="667.19885"
   height="639.57245"
   viewBox="0 0 667.19885 639.57246"
   id="svg2"
   version="1.1"
   inkscape:version="0.91 r13725"
   sodipodi:docname="ocarina.svg">
  <defs
     id="defs4" />
  <sodipodi:namedview
     id="base"
     pagecolor="#ffffff"
     bordercolor="#666666"
     borderopacity="1.0"
     inkscape:pageopacity="0.0"
     inkscape:pageshadow="2"
     inkscape:zoom="0.7"
     inkscape:cx="1032.5563"
     inkscape:cy="187.9421"
     inkscape:document-units="px"
     inkscape:current-layer="layer2"
     showgrid="false"
     inkscape:snap-global="false"
     inkscape:window-width="1920"
     inkscape:window-height="1018"
     inkscape:window-x="0"
     inkscape:window-y="0"
     inkscape:window-maximized="1"
     fit-margin-top="10"
     fit-margin-right="10"
     fit-margin-bottom="10"
     fit-margin-left="10"
     units="px" />
  <metadata
     id="metadata7">
    <rdf:RDF>
      <cc:Work
         rdf:about="">
        <dc:format>image/svg+xml</dc:format>
        <dc:type
           rdf:resource="http://purl.org/dc/dcmitype/StillImage" />
        <dc:title></dc:title>
      </cc:Work>
    </rdf:RDF>
  </metadata>
  <g
     inkscape:groupmode="layer"
     id="layer2"
     inkscape:label="Outline"
     transform="translate(66.649603,-244.60365)">
    <path
       style="fill:none;fill-rule:evenodd;stroke:#000000;stroke-width:8;stroke-linecap:butt;stroke-linejoin:miter;stroke-miterlimit:4;stroke-dasharray:none;stroke-opacity:1"
       d="m 161.07364,839.29189 c 4.60775,-25.31839 14.70687,-48.88362 14.29735,-74.70252 -0.42966,-27.08884 -8.95859,-56.2201 -28.08294,-74.61568 C 111.57972,655.62607 32.856251,644.00424 -7.079348,633.96903 -20.084354,630.70107 -46.014437,621.95402 -51.195849,609.75358 -60.378035,588.1327 -23.531814,543.72104 2.6650519,521.19353 83.988076,451.26134 177.85986,407.35826 272.95089,365.17361 370.62933,321.84114 537.47118,263.31602 571.95578,258.70058 c 9.66603,-1.29371 17.39465,10.80039 13.54155,18.10347 -12.73857,24.14441 -56.29397,85.36775 -87.54777,126.93992 -53.44438,71.08892 -108.13827,140.6073 -153.98541,216.31622 -30.34074,50.10267 -57.08087,102.58176 -79.63992,156.63663 -10.89346,26.10234 -16.12816,54.3311 -26.71987,80.53601 -3.22286,7.97363 -11.48018,12.93522 -18.06556,12.94322 -14.41456,0.0181 -34.097,-4.2477 -48.78846,-11.36519 -6.64334,-3.21848 -11.08417,-11.78524 -9.6767,-19.51897 z"
       id="ocarina"
       inkscape:connector-curvature="0"
       sodipodi:nodetypes="ssssssssssaassss" />
    <circle
       style="opacity:1;fill:none;fill-opacity:1;fill-rule:nonzero;stroke:#000000;stroke-width:8;stroke-linecap:butt;stroke-linejoin:miter;stroke-miterlimit:4;stroke-dasharray:none;stroke-opacity:1"
       id="hole_6"
       cx="-133.99423"
       cy="540.83569"
       r="28.369736"
       transform="matrix(0.89379899,-0.44846779,0.44846779,0.89379899,0,0)" />
    <circle
       style="opacity:1;fill:none;fill-opacity:1;fill-rule:nonzero;stroke:#000000;stroke-width:8;stroke-linecap:butt;stroke-linejoin:miter;stroke-miterlimit:4;stroke-dasharray:none;stroke-opacity:1"
       id="hole_7"
       cx="-227.43335"
       cy="542.35089"
       r="24.910162"
       transform="matrix(0.89379899,-0.44846779,0.44846779,0.89379899,0,0)" />
    <circle
       style="opacity:1;fill:none;fill-opacity:1;fill-rule:nonzero;stroke:#000000;stroke-width:8;stroke-linecap:butt;stroke-linejoin:miter;stroke-miterlimit:4;stroke-dasharray:none;stroke-opacity:1"
       id="hole_5"
       cx="-40.050018"
       cy="523.66309"
       r="27.705324"
       transform="matrix(0.89379899,-0.44846779,0.44846779,0.89379899,0,0)" />
    <circle
       style="opacity:1;fill:none;fill-opacity:1;fill-rule:nonzero;stroke:#000000;stroke-width:8;stroke-linecap:butt;stroke-linejoin:miter;stroke-miterlimit:4;stroke-dasharray:none;stroke-opacity:1"
       id="hole_10"
       cx="43.792603"
       cy="490.32809"
       r="23.872936"
       transform="matrix(0.89379899,-0.44846779,0.44846779,0.89379899,0,0)" />
    <circle
       style="opacity:1;fill:none;fill-opacity:1;fill-rule:nonzero;stroke:#000000;stroke-width:8;stroke-linecap:butt;stroke-linejoin:miter;stroke-miterlimit:4;stroke-dasharray:none;stroke-opacity:1"
       id="hole_4"
       cx="42.782471"
       cy="626.1936"
       r="29.0299"
       transform="matrix(0.89379899,-0.44846779,0.44846779,0.89379899,0,0)" />
    <circle
       style="opacity:1;fill:none;fill-opacity:1;fill-rule:nonzero;stroke:#000000;stroke-width:8;stroke-linecap:butt;stroke-linejoin:miter;stroke-miterlimit:4;stroke-dasharray:none;stroke-opacity:1"
       id="hole_2"
       cx="193.71425"
       cy="555.54028"
       r="24.515532"
       transform="matrix(0.89379899,-0.44846779,0.44846779,0.89379899,0,0)" />
    <circle
       style="opacity:1;fill:none;fill-opacity:1;fill-rule:nonzero;stroke:#000000;stroke-width:8;stroke-linecap:butt;stroke-linejoin:miter;stroke-miterlimit:4;stroke-dasharray:none;stroke-opacity:1"
       id="hole_3"
       cx="119.5381"
       cy="585.86005"
       transform="matrix(0.89379899,-0.44846779,0.44846779,0.89379899,0,0)"
       r="26.097214" />
    <circle
       style="opacity:1;fill:none;fill-opacity:1;fill-rule:nonzero;stroke:#000000;stroke-width:8;stroke-linecap:butt;stroke-linejoin:miter;stroke-miterlimit:4;stroke-dasharray:none;stroke-opacity:1"
       id="hole_11"
       cx="-116.29036"
       cy="597.4198"
       r="19.060635"
       transform="matrix(0.89379899,-0.44846779,0.44846779,0.89379899,0,0)" />
    <circle
       style="opacity:1;fill:none;fill-opacity:1;fill-rule:nonzero;stroke:#000000;stroke-width:8;stroke-linecap:butt;stroke-linejoin:miter;stroke-miterlimit:4;stroke-dasharray:none;stroke-opacity:1"
       id="hole_1"
       cx="263.9567"
       cy="533.86963"
       r="22.387703"
       transform="matrix(0.89379899,-0.44846779,0.44846779,0.89379899,0,0)" />
    <circle
       style="opacity:1;fill:none;fill-opacity:1;fill-rule:nonzero;stroke:#000000;stroke-width:8;stroke-linecap:butt;stroke-linejoin:miter;stroke-miterlimit:4;stroke-dasharray:none;stroke-opacity:1"
       id="hole_8"
       cx="-245.02435"
       cy="697.89948"
       r="35.672932"
       transform="matrix(0.89379899,-0.44846779,0.44846779,0.89379899,0,0)" />
    <circle
       style="opacity:1;fill:none;fill-opacity:1;fill-rule:nonzero;stroke:#000000;stroke-width:8;stroke-linecap:butt;stroke-linejoin:miter;stroke-miterlimit:4;stroke-dasharray:none;stroke-opacity:1"
       id="hole_9"
       cx="0.55719215"
       cy="821.12115"
       r="35.672932"
       transform="matrix(0.89379899,-0.44846779,0.44846779,0.89379899,0,0)" />
    <circle
       style="opacity:1;fill:none;fill-opacity:1;fill-rule:nonzero;stroke:#000000;stroke-width:8;stroke-linecap:butt;stroke-linejoin:miter;stroke-miterlimit:4;stroke-dasharray:none;stroke-opacity:1"
       id="hole_12"
       cx="93.906395"
       cy="535.51093"
       r="19.060635"
       transform="matrix(0.89379899,-0.44846779,0.44846779,0.89379899,0,0)" />
  </g>
</svg>
